<svg id="Layer_1" data-name="Layer 1" xmlns="http://www.w3.org/2000/svg" viewBox="0 0 1101.59 659.7"><defs><style>.cls-1{fill:#fff;}.cls-1,.cls-4,.cls-7,.cls-8{stroke:#000;}.cls-1,.cls-7,.cls-8{stroke-miterlimit:10;stroke-width:0.25px;}.cls-2{fill:#f3ad7b;}.cls-3,.cls-4,.cls-7,.cls-8{fill:none;}.cls-4{stroke-linejoin:round;stroke-width:0.8px;}.cls-5{font-size:12px;}.cls-5,.cls-6{font-family:GillSans, Gill Sans;}.cls-6{font-size:17px;}.cls-7{stroke-linecap:square;}</style></defs><title>Artboard 1</title><rect class="cls-1" x="111.49" y="69.12" width="948.6" height="434.88"/><rect class="cls-2" x="117.57" y="318.29" width="12.16" height="1.29"/><rect class="cls-3" x="111.49" y="69.12" width="948.6" height="434.88"/><rect class="cls-2" x="141.89" y="289.42" width="12.16" height="30.16"/><rect class="cls-3" x="111.49" y="69.12" width="948.6" height="434.88"/><rect class="cls-2" x="166.21" y="202.95" width="12.16" height="116.63"/><rect class="cls-3" x="111.49" y="69.12" width="948.6" height="434.88"/><rect class="cls-2" x="190.54" y="271.41" width="12.16" height="48.17"/><rect class="cls-3" x="111.49" y="69.12" width="948.6" height="434.88"/><rect class="cls-2" x="214.86" y="286.13" width="12.16" height="33.45"/><rect class="cls-3" x="111.49" y="69.12" width="948.6" height="434.88"/><rect class="cls-2" x="239.18" y="257.55" width="12.16" height="62.03"/><rect class="cls-3" x="111.49" y="69.12" width="948.6" height="434.88"/><rect class="cls-2" x="263.51" y="319.58" width="12.16" height="42.74"/><rect class="cls-3" x="111.49" y="69.12" width="948.6" height="434.88"/><rect class="cls-2" x="287.83" y="272.55" width="12.16" height="47.02"/><rect class="cls-3" x="111.49" y="69.12" width="948.6" height="434.88"/><rect class="cls-2" x="312.15" y="205.38" width="12.16" height="114.2"/><rect class="cls-3" x="111.49" y="69.12" width="948.6" height="434.88"/><rect class="cls-2" x="336.47" y="307" width="12.16" height="12.58"/><rect class="cls-3" x="111.49" y="69.12" width="948.6" height="434.88"/><rect class="cls-2" x="360.8" y="319.58" width="12.16" height="4.29"/><rect class="cls-3" x="111.49" y="69.12" width="948.6" height="434.88"/><rect class="cls-2" x="385.12" y="178.5" width="12.16" height="141.07"/><rect class="cls-3" x="111.49" y="69.12" width="948.6" height="434.88"/><rect class="cls-2" x="409.44" y="269.84" width="12.16" height="49.74"/><rect class="cls-3" x="111.49" y="69.12" width="948.6" height="434.88"/><rect class="cls-2" x="433.77" y="262.83" width="12.16" height="56.74"/><rect class="cls-3" x="111.49" y="69.12" width="948.6" height="434.88"/><rect class="cls-2" x="458.09" y="281.13" width="12.16" height="38.45"/><rect class="cls-3" x="111.49" y="69.12" width="948.6" height="434.88"/><rect class="cls-2" x="482.41" y="299.71" width="12.16" height="19.87"/><rect class="cls-3" x="111.49" y="69.12" width="948.6" height="434.88"/><rect class="cls-2" x="506.74" y="252.69" width="12.16" height="66.89"/><rect class="cls-3" x="111.49" y="69.12" width="948.6" height="434.88"/><rect class="cls-2" x="531.06" y="265.12" width="12.16" height="54.46"/><rect class="cls-3" x="111.49" y="69.12" width="948.6" height="434.88"/><rect class="cls-2" x="555.38" y="240.82" width="12.16" height="78.75"/><rect class="cls-3" x="111.49" y="69.12" width="948.6" height="434.88"/><rect class="cls-2" x="579.71" y="238.25" width="12.16" height="81.33"/><rect class="cls-3" x="111.49" y="69.12" width="948.6" height="434.88"/><rect class="cls-2" x="604.03" y="302.14" width="12.16" height="17.44"/><rect class="cls-3" x="111.49" y="69.12" width="948.6" height="434.88"/><rect class="cls-2" x="628.35" y="288.99" width="12.16" height="30.59"/><rect class="cls-3" x="111.49" y="69.12" width="948.6" height="434.88"/><rect class="cls-2" x="652.67" y="224.96" width="12.16" height="94.62"/><rect class="cls-3" x="111.49" y="69.12" width="948.6" height="434.88"/><rect class="cls-2" x="677" y="166.64" width="12.16" height="152.94"/><rect class="cls-3" x="111.49" y="69.12" width="948.6" height="434.88"/><rect class="cls-2" x="701.32" y="234.53" width="12.16" height="85.04"/><rect class="cls-3" x="111.49" y="69.12" width="948.6" height="434.88"/><rect class="cls-2" x="725.64" y="260.69" width="12.16" height="58.89"/><rect class="cls-3" x="111.49" y="69.12" width="948.6" height="434.88"/><rect class="cls-2" x="749.97" y="296.28" width="12.16" height="23.3"/><rect class="cls-3" x="111.49" y="69.12" width="948.6" height="434.88"/><rect class="cls-2" x="774.29" y="88.89" width="12.16" height="230.69"/><rect class="cls-3" x="111.49" y="69.12" width="948.6" height="434.88"/><rect class="cls-2" x="798.61" y="161.64" width="12.16" height="157.94"/><rect class="cls-3" x="111.49" y="69.12" width="948.6" height="434.88"/><rect class="cls-2" x="822.94" y="319.58" width="12.16" height="20.01"/><rect class="cls-3" x="111.49" y="69.12" width="948.6" height="434.88"/><rect class="cls-2" x="847.26" y="264.98" width="12.16" height="54.6"/><rect class="cls-3" x="111.49" y="69.12" width="948.6" height="434.88"/><rect class="cls-2" x="871.58" y="317.86" width="12.16" height="1.72"/><rect class="cls-3" x="111.49" y="69.12" width="948.6" height="434.88"/><rect class="cls-2" x="895.91" y="317.72" width="12.16" height="1.86"/><rect class="cls-3" x="111.49" y="69.12" width="948.6" height="434.88"/><rect class="cls-2" x="920.23" y="169.64" width="12.16" height="149.93"/><rect class="cls-3" x="111.49" y="69.12" width="948.6" height="434.88"/><rect class="cls-2" x="944.55" y="233.1" width="12.16" height="86.47"/><rect class="cls-3" x="111.49" y="69.12" width="948.6" height="434.88"/><rect class="cls-2" x="968.87" y="268.55" width="12.16" height="51.03"/><rect class="cls-3" x="111.49" y="69.12" width="948.6" height="434.88"/><rect class="cls-2" x="993.2" y="238.96" width="12.16" height="80.61"/><rect class="cls-3" x="111.49" y="69.12" width="948.6" height="434.88"/><rect class="cls-2" x="1017.52" y="319.58" width="12.16" height="164.66"/><rect class="cls-3" x="111.49" y="69.12" width="948.6" height="434.88"/><rect class="cls-2" x="1041.84" y="319.58" width="12.16" height="101.48"/><rect class="cls-3" x="111.49" y="69.12" width="948.6" height="434.88"/><line class="cls-4" x1="123.65" y1="504" x2="123.65" y2="507.5"/><text class="cls-5" transform="translate(126.96 550.45) rotate(-90)">Alaska</text><line class="cls-4" x1="147.97" y1="504" x2="147.97" y2="507.5"/><text class="cls-5" transform="translate(151.28 563.92) rotate(-90)">Alabama</text><line class="cls-4" x1="172.29" y1="504" x2="172.29" y2="507.5"/><text class="cls-5" transform="translate(175.61 556.08) rotate(-90)">Arizona</text><line class="cls-4" x1="196.62" y1="504" x2="196.62" y2="507.5"/><text class="cls-5" transform="translate(199.93 568.19) rotate(-90)">California</text><line class="cls-4" x1="220.94" y1="504" x2="220.94" y2="507.5"/><text class="cls-5" transform="translate(224.25 564.66) rotate(-90)">Colorado</text><line class="cls-4" x1="245.26" y1="504" x2="245.26" y2="507.5"/><text class="cls-5" transform="translate(248.58 582.86) rotate(-90)">Connecticut</text><line class="cls-4" x1="269.59" y1="504" x2="269.59" y2="507.5"/><text class="cls-5" transform="translate(272.9 629.92) rotate(-90)">District of Columbia</text><line class="cls-4" x1="293.91" y1="504" x2="293.91" y2="507.5"/><text class="cls-5" transform="translate(297.22 567.81) rotate(-90)">Delaware</text><line class="cls-4" x1="318.23" y1="504" x2="318.23" y2="507.5"/><text class="cls-5" transform="translate(321.54 551.83) rotate(-90)">Florida</text><line class="cls-4" x1="342.56" y1="504" x2="342.56" y2="507.5"/><text class="cls-5" transform="translate(345.87 558.28) rotate(-90)">Georgia</text><line class="cls-4" x1="366.88" y1="504" x2="366.88" y2="507.5"/><text class="cls-5" transform="translate(370.19 539.06) rotate(-90)">Iowa</text><line class="cls-4" x1="391.2" y1="504" x2="391.2" y2="507.5"/><text class="cls-5" transform="translate(394.51 555.44) rotate(-90)">Indiana</text><line class="cls-4" x1="415.52" y1="504" x2="415.52" y2="507.5"/><text class="cls-5" transform="translate(418.84 553.7) rotate(-90)">Kansas</text><line class="cls-4" x1="439.85" y1="504" x2="439.85" y2="507.5"/><text class="cls-5" transform="translate(443.16 567.88) rotate(-90)">Louisiana</text><line class="cls-4" x1="464.17" y1="504" x2="464.17" y2="507.5"/><text class="cls-5" transform="translate(467.48 566.69) rotate(-90)">Maryland</text><line class="cls-4" x1="488.49" y1="504" x2="488.49" y2="507.5"/><text class="cls-5" transform="translate(491.81 547.05) rotate(-90)">Maine</text><line class="cls-4" x1="512.82" y1="504" x2="512.82" y2="507.5"/><text class="cls-5" transform="translate(516.13 572.95) rotate(-90)">Minnesota</text><line class="cls-4" x1="537.14" y1="504" x2="537.14" y2="507.5"/><text class="cls-5" transform="translate(540.45 563.34) rotate(-90)">Montana</text><line class="cls-4" x1="561.46" y1="504" x2="561.46" y2="507.5"/><text class="cls-5" transform="translate(564.78 598.03) rotate(-90)">North Carolina</text><line class="cls-4" x1="585.79" y1="504" x2="585.79" y2="507.5"/><text class="cls-5" transform="translate(589.1 567.86) rotate(-90)">Nebraska</text><line class="cls-4" x1="610.11" y1="504" x2="610.11" y2="507.5"/><text class="cls-5" transform="translate(613.42 577.63) rotate(-90)">New Jersey</text><line class="cls-4" x1="634.43" y1="504" x2="634.43" y2="507.5"/><text class="cls-5" transform="translate(637.74 583.12) rotate(-90)">New Mexico</text><line class="cls-4" x1="658.76" y1="504" x2="658.76" y2="507.5"/><text class="cls-5" transform="translate(662.07 560.64) rotate(-90)">Nevada </text><line class="cls-4" x1="683.08" y1="504" x2="683.08" y2="507.5"/><text class="cls-5" transform="translate(686.39 567.55) rotate(-90)">New York</text><line class="cls-4" x1="707.4" y1="504" x2="707.4" y2="507.5"/><text class="cls-5" transform="translate(710.71 538.74) rotate(-90)">Ohio</text><line class="cls-4" x1="731.72" y1="504" x2="731.72" y2="507.5"/><text class="cls-5" transform="translate(735.04 572.09) rotate(-90)">Oklahoma</text><line class="cls-4" x1="756.05" y1="504" x2="756.05" y2="507.5"/><text class="cls-5" transform="translate(759.36 555.36) rotate(-90)">Oregon</text><line class="cls-4" x1="780.37" y1="504" x2="780.37" y2="507.5"/><text class="cls-5" transform="translate(783.68 590.3) rotate(-90)">Pennsylvania</text><line class="cls-4" x1="804.69" y1="504" x2="804.69" y2="507.5"/><text class="cls-5" transform="translate(808.01 588.84) rotate(-90)">Rhode Island</text><line class="cls-4" x1="829.02" y1="504" x2="829.02" y2="507.5"/><text class="cls-5" transform="translate(832.33 592.66) rotate(-90)">South Dakota</text><line class="cls-4" x1="853.34" y1="504" x2="853.34" y2="507.5"/><text class="cls-5" transform="translate(856.65 575.58) rotate(-90)">Tennessee</text><line class="cls-4" x1="877.66" y1="504" x2="877.66" y2="507.5"/><text class="cls-5" transform="translate(880.98 546.41) rotate(-90)">Texas</text><line class="cls-4" x1="901.99" y1="504" x2="901.99" y2="507.5"/><text class="cls-5" transform="translate(905.3 539.45) rotate(-90)">Utah</text><line class="cls-4" x1="926.31" y1="504" x2="926.31" y2="507.5"/><text class="cls-5" transform="translate(929.62 556.72) rotate(-90)">Virginia</text><line class="cls-4" x1="950.63" y1="504" x2="950.63" y2="507.5"/><text class="cls-5" transform="translate(953.94 562.88) rotate(-90)">Vermont</text><line class="cls-4" x1="974.96" y1="504" x2="974.96" y2="507.5"/><text class="cls-5" transform="translate(978.27 582.3) rotate(-90)">Washington</text><line class="cls-4" x1="999.28" y1="504" x2="999.28" y2="507.5"/><text class="cls-5" transform="translate(1002.59 571.17) rotate(-90)">Wisconsin</text><line class="cls-4" x1="1023.6" y1="504" x2="1023.6" y2="507.5"/><text class="cls-5" transform="translate(1026.91 590.73) rotate(-90)">West Virginia</text><line class="cls-4" x1="1047.92" y1="504" x2="1047.92" y2="507.5"/><text class="cls-5" transform="translate(1051.24 567.56) rotate(-90)">Wyoming</text><text class="cls-6" transform="translate(546.75 634.56)">State</text><line class="cls-4" x1="111.49" y1="462.51" x2="107.99" y2="462.51"/><text class="cls-5" transform="translate(79.14 467.07)">−10</text><line class="cls-4" x1="111.49" y1="391.04" x2="107.99" y2="391.04"/><text class="cls-5" transform="translate(86.78 395.6)">−5</text><line class="cls-4" x1="111.49" y1="319.58" x2="107.99" y2="319.58"/><text class="cls-5" transform="translate(96.85 324.14)">0</text><line class="cls-4" x1="111.49" y1="248.11" x2="107.99" y2="248.11"/><text class="cls-5" transform="translate(96.85 252.67)">5</text><line class="cls-4" x1="111.49" y1="176.65" x2="107.99" y2="176.65"/><text class="cls-5" transform="translate(89.2 181.21)">10</text><line class="cls-4" x1="111.49" y1="105.18" x2="107.99" y2="105.18"/><text class="cls-5" transform="translate(89.2 109.74)">15</text><line class="cls-7" x1="111.49" y1="504" x2="111.49" y2="69.12"/><line class="cls-7" x1="1060.09" y1="504" x2="1060.09" y2="69.12"/><line class="cls-8" x1="111.49" y1="504" x2="1060.09" y2="504"/><line class="cls-7" x1="111.49" y1="69.12" x2="1060.09" y2="69.12"/><rect class="cls-3" x="-41.51" width="1224" height="576"/><text class="cls-6" transform="translate(51.75 425.56) rotate(-90)">Difference in Youth Voter Registration</text></svg>